<?xml version="1.0" standalone="no"?>
<!DOCTYPE svg PUBLIC "-//W3C//DTD SVG 20010904//EN"
 "http://www.w3.org/TR/2001/REC-SVG-20010904/DTD/svg10.dtd">
<svg version="1.0" xmlns="http://www.w3.org/2000/svg"
 width="9167.000000pt" height="6108.000000pt" viewBox="0 0 9167.000000 6108.000000"
 preserveAspectRatio="xMidYMid meet">

<g transform="translate(0.000000,6108.000000) scale(0.100000,-0.100000)"
fill="#000000" stroke="none">
<path d="M45698 48893 c72 -2 192 -2 265 0 72 1 13 3 -133 3 -146 0 -205 -2
-132 -3z"/>
<path d="M45055 48200 c-948 -45 -1835 -154 -2730 -335 -467 -94 -762 -165
-768 -184 -32 -108 -60 -223 -72 -296 -17 -105 -20 -296 -4 -381 39 -222 162
-427 321 -536 107 -72 174 -92 363 -107 149 -12 203 -31 275 -98 102 -94 150
-218 150 -389 0 -109 -22 -223 -85 -432 -55 -187 -75 -300 -82 -472 -21 -539
186 -1055 581 -1445 148 -146 270 -235 441 -320 205 -102 336 -135 530 -135
248 0 431 93 514 262 17 35 49 123 71 196 67 222 155 376 304 531 145 150 320
274 551 389 236 118 390 174 855 311 628 185 894 297 1162 487 119 84 291 260
367 373 313 470 384 1063 221 1846 -42 201 -150 618 -163 632 -12 12 -591 64
-1057 94 -208 14 -1504 20 -1745 9z"/>
<path d="M38965 46831 c-929 -395 -1786 -845 -2620 -1376 -3806 -2423 -6563
-6237 -7654 -10590 -275 -1100 -426 -2091 -507 -3343 l-6 -103 77 -131 c492
-836 1074 -1423 1768 -1783 352 -182 683 -281 1087 -325 545 -60 650 -82 870
-186 235 -111 414 -246 880 -664 367 -329 523 -455 744 -602 165 -110 388
-225 536 -278 186 -65 258 -114 329 -221 54 -81 81 -170 81 -268 0 -164 -53
-480 -186 -1101 -104 -486 -155 -769 -178 -991 -71 -683 22 -1254 275 -1674
198 -329 482 -569 1039 -875 518 -286 592 -327 694 -392 701 -443 928 -924
877 -1848 -29 -527 -35 -805 -23 -1112 46 -1183 248 -2145 809 -3860 l136
-417 215 -101 c263 -125 402 -188 642 -292 189 -82 727 -298 741 -298 5 0 6 6
4 13 -10 27 -75 403 -99 567 -62 435 -78 886 -42 1190 61 518 210 909 487
1280 117 158 189 241 484 555 362 387 463 507 596 707 152 231 254 457 434
968 170 481 267 699 405 908 135 204 283 354 530 538 52 39 175 130 273 203
304 226 458 392 576 620 78 153 126 294 221 656 126 479 174 600 403 1007 200
356 272 515 323 715 108 427 -6 784 -330 1037 -243 190 -483 291 -1120 472
-221 62 -575 163 -789 223 -223 63 -426 127 -478 150 -190 84 -393 249 -510
414 -28 40 -99 169 -158 287 -168 338 -302 534 -479 702 -115 109 -173 150
-462 322 -1155 690 -2048 1092 -2653 1196 -360 61 -829 90 -1180 72 -545 -29
-948 -114 -1403 -297 -101 -41 -202 -79 -225 -85 -194 -52 -323 -17 -457 124
-88 94 -136 182 -221 404 -39 100 -89 220 -113 265 -57 111 -157 211 -303 302
-202 125 -266 188 -300 293 -25 75 -16 142 40 313 56 170 66 260 41 356 -43
171 -180 321 -376 411 -117 55 -193 72 -345 79 -155 7 -301 -10 -605 -68 -249
-48 -342 -58 -438 -48 -287 31 -540 252 -612 535 -65 254 41 815 224 1188 200
409 483 666 873 796 415 138 868 106 1245 -86 137 -70 238 -146 344 -256 88
-92 142 -168 252 -354 150 -255 276 -368 444 -396 203 -34 355 103 389 351 13
94 7 159 -37 378 -44 222 -51 316 -30 413 27 127 74 211 174 310 127 126 246
197 577 345 296 133 429 209 600 345 234 187 429 412 820 945 302 413 455 595
696 830 522 507 1164 916 2038 1295 149 65 206 111 253 208 30 61 33 75 33
157 -1 107 -17 151 -99 259 -67 88 -90 135 -106 209 -15 77 -6 141 34 224 59
121 172 211 336 269 112 39 250 68 555 119 317 53 410 72 545 116 337 110 577
314 672 571 38 104 48 245 25 353 -35 165 -100 289 -317 605 -206 299 -304
483 -480 900 -215 511 -321 730 -443 922 -354 553 -767 818 -1273 818 -147 0
-242 -12 -389 -50 -568 -147 -1029 -586 -1337 -1274 -61 -138 -107 -271 -272
-783 -60 -187 -130 -346 -194 -440 -171 -252 -387 -385 -622 -385 -270 1 -514
154 -878 551 -257 281 -382 470 -452 679 -156 470 105 1010 680 1404 194 133
384 233 913 482 442 207 643 319 855 478 129 96 312 281 392 397 248 360 345
445 505 445 84 0 151 -30 242 -105 220 -186 261 -212 400 -259 177 -59 375
-62 578 -10 102 26 281 114 365 178 432 328 553 991 284 1559 -45 94 -155 259
-238 355 -90 106 -227 224 -370 319 -116 78 -283 170 -308 168 -7 0 -116 -44
-243 -98z"/>
<path d="M54479 45821 c-470 -157 -856 -400 -1239 -781 -372 -370 -683 -818
-967 -1395 -347 -704 -375 -1220 -88 -1586 129 -165 368 -288 660 -340 227
-41 769 -37 1018 6 362 63 569 208 644 450 16 53 18 91 15 328 -4 351 7 403
104 507 112 120 303 141 467 52 116 -63 226 -211 275 -372 96 -315 20 -729
-195 -1065 -323 -503 -894 -815 -1663 -909 -101 -13 -290 -26 -496 -36 -505
-24 -757 -96 -968 -276 -129 -109 -216 -247 -371 -594 -175 -390 -215 -449
-528 -766 -120 -122 -247 -260 -281 -307 -212 -291 -254 -618 -141 -1085 15
-62 25 -132 25 -177 0 -229 -167 -443 -391 -501 -54 -14 -87 -15 -209 -8 -423
26 -550 -1 -694 -149 -102 -103 -154 -219 -172 -384 -11 -102 39 -588 78 -758
75 -329 265 -545 514 -587 142 -23 290 28 450 156 49 39 317 316 676 698 657
698 729 768 922 898 102 68 280 153 376 180 352 96 695 7 950 -249 102 -102
403 -489 634 -814 54 -75 114 -151 134 -167 181 -149 461 -92 563 115 17 35
34 87 38 117 15 120 -11 192 -227 618 -73 146 -140 290 -148 320 -64 245 88
503 340 575 93 27 231 17 316 -22 115 -54 162 -102 300 -307 188 -280 347
-600 464 -931 40 -111 62 -189 146 -505 40 -151 115 -306 183 -378 75 -78 114
-96 212 -97 123 0 148 16 355 225 201 203 242 230 346 230 132 0 205 -68 339
-316 91 -168 150 -245 238 -311 117 -87 264 -141 567 -209 388 -87 534 -147
660 -273 103 -104 159 -235 160 -369 0 -187 -130 -439 -299 -581 -120 -99
-239 -156 -401 -192 -89 -20 -133 -24 -290 -23 -240 0 -342 16 -810 126 -352
82 -512 108 -706 115 -377 14 -577 -51 -879 -282 -172 -132 -267 -186 -367
-210 -175 -41 -354 8 -537 145 -143 108 -246 236 -421 525 -185 304 -329 475
-488 580 -262 171 -636 244 -1114 217 -238 -14 -2472 -234 -2601 -257 -113
-20 -204 -49 -297 -93 -57 -27 -93 -54 -155 -116 -97 -97 -152 -200 -215 -401
-171 -543 -300 -830 -724 -1598 -75 -135 -156 -283 -181 -329 -83 -151 -290
-571 -347 -703 -168 -392 -260 -711 -314 -1090 -25 -170 -25 -630 0 -805 97
-697 370 -1260 833 -1716 398 -392 871 -632 1428 -723 240 -40 332 -46 670
-45 344 1 430 6 960 54 456 42 747 61 813 54 231 -25 448 -175 547 -379 19
-38 50 -124 69 -190 55 -188 125 -387 275 -778 247 -645 319 -897 356 -1256
19 -183 19 -385 -1 -603 -28 -314 -72 -558 -218 -1193 -183 -803 -225 -1084
-226 -1510 0 -303 22 -537 81 -863 105 -585 362 -1414 564 -1827 259 -528 600
-823 1055 -912 133 -26 404 -23 545 5 436 87 800 291 1172 659 186 183 349
377 590 698 165 221 1851 2505 1944 2635 462 644 669 1106 720 1609 13 127 8
486 -12 816 -32 555 35 943 241 1396 216 472 561 936 1190 1599 91 96 194 207
227 247 300 352 355 674 157 917 -99 122 -253 208 -589 330 -444 162 -702 320
-985 605 -388 390 -704 924 -1060 1786 -182 441 -210 537 -217 737 -5 120 -3
145 16 206 20 67 68 144 115 184 12 10 48 33 81 50 49 25 75 32 145 35 201 11
399 -84 606 -292 224 -226 377 -474 622 -1010 125 -274 245 -522 295 -611 119
-213 252 -390 411 -549 227 -227 443 -352 701 -406 83 -17 122 -20 225 -16
214 10 338 50 745 242 353 166 477 212 616 229 l57 7 8 197 c11 244 11 1566 1
1643 l-8 56 -172 6 c-434 13 -754 133 -993 371 -199 199 -297 452 -253 658 29
137 107 218 225 233 27 3 281 -12 567 -34 285 -23 521 -41 524 -41 19 0 -91
747 -178 1207 -589 3141 -2025 6064 -4154 8458 -481 541 -1039 1095 -1575
1565 -808 707 -1665 1330 -2594 1887 -132 79 -244 143 -250 143 -6 -1 -77 -23
-157 -49z m4381 -7761 c276 -21 532 -92 782 -218 160 -79 232 -135 288 -222
121 -188 83 -463 -84 -606 -56 -48 -185 -110 -278 -133 -133 -34 -217 -42
-480 -48 -270 -6 -430 3 -713 38 -204 26 -725 113 -830 139 -146 37 -239 97
-287 186 -36 68 -42 115 -24 179 30 101 129 199 350 346 321 214 686 328 1111
348 17 0 91 -4 165 -9z"/>
<path d="M50365 42634 c-135 -33 -285 -132 -371 -248 -109 -145 -147 -265
-146 -471 0 -120 6 -172 40 -360 56 -303 67 -419 52 -531 -22 -169 -71 -275
-238 -510 -128 -181 -185 -279 -218 -374 -64 -182 -29 -377 84 -481 133 -123
308 -118 580 17 271 134 605 385 876 659 317 319 408 591 327 975 -36 171
-177 623 -266 855 -68 176 -100 233 -179 311 -145 145 -349 204 -541 158z"/>
<path d="M49115 41735 c-134 -36 -227 -87 -366 -201 -247 -202 -279 -334 -145
-598 155 -305 285 -433 471 -459 184 -26 295 76 406 375 61 165 83 279 83 433
1 81 -4 164 -12 196 -45 197 -236 308 -437 254z"/>
<path d="M45713 12183 c70 -2 184 -2 255 0 70 1 12 3 -128 3 -140 0 -198 -2
-127 -3z"/>
</g>
</svg>
